<svg xmlns="http://www.w3.org/2000/svg" viewBox="0 0 127.82 18.3"><defs><style>.cls-1{fill:none;}.cls-2{fill:#6d3189;}.cls-3{fill:#e84423;}.cls-4{fill:#56af34;}.cls-5{fill:#ebb110;}.cls-6{fill:#0f1726;}.cls-7{fill:#229ebd;}.cls-8{fill:#ffffff;}</style></defs><g id="Capa_2" data-name="Capa 2"><g id="Capa_1-2" data-name="Capa 1"><polygon class="cls-1" points="33.31 10.06 33.31 10.06 33.31 10.06 33.31 10.06 33.31 10.06"/><path class="cls-2" d="M33,10.29l.15-.12h0l.14-.11h0l.14-.08.14-.08.06,0,.22-.09a2.52,2.52,0,0,1,.73-.18V6.79a5.4,5.4,0,0,0-1.94.45l-.09,0-.27.14-.06,0-.09.06L32,7.58l-.18.11-.08,0,0,0,0,0L31.42,8h0l-.09.07a5.57,5.57,0,0,0-.8.81,3.28,3.28,0,0,0-.27.38l-.06.08,2.42,1.4A2.79,2.79,0,0,1,33,10.29Z"/><path d="M31.7,7.56l0-.06,0,0h0Z"/><path class="cls-3" d="M36.24,9.93l.13.08,0,0,.06,0,.14.1,0,0a1.34,1.34,0,0,1,.21.2.23.23,0,0,1,.07.07,1.64,1.64,0,0,1,.21.25h0l2.4-1.39A5.56,5.56,0,0,0,35.2,6.79h0V9.5a2.58,2.58,0,0,1,.48.14A3.55,3.55,0,0,1,36.24,9.93Z"/><path class="cls-4" d="M35.2,15.31v2.8a5.58,5.58,0,0,0,4.4-2.54l-2.43-1.4A2.81,2.81,0,0,1,35.2,15.31Z"/><path class="cls-5" d="M37.7,12.53a2.87,2.87,0,0,1-.24,1.14l2.42,1.4a5.51,5.51,0,0,0,0-5.08l-2.42,1.4A2.87,2.87,0,0,1,37.7,12.53Z"/><path class="cls-6" d="M32.36,13.67a2.83,2.83,0,0,1,0-2.28L29.93,10a5.59,5.59,0,0,0,0,5.08Z"/><path class="cls-7" d="M34.62,15.33v0a2.79,2.79,0,0,1-2-1.14l-2.43,1.4a5.59,5.59,0,0,0,4.27,2.53l0,0h.1v-2.8Z"/><path class="cls-6" d="M31.7,7.56l0-.06,0,0h0Z"/><path class="cls-8" d="M3,13.05a2,2,0,0,1-.39,1.39,1.37,1.37,0,0,1-1.09.43l-.43,0a2.39,2.39,0,0,1-.44-.1L0,17.86A8.25,8.25,0,0,0,.93,18c.37,0,.66,0,.87,0h.05a5.72,5.72,0,0,0,1.84-.29,4.08,4.08,0,0,0,1.46-.88,3.82,3.82,0,0,0,.95-1.48,5.87,5.87,0,0,0,.35-2.11V1.46H3Z"/><path class="cls-8" d="M19,17.7l0-8.91a4.81,4.81,0,0,0-.79-.64A9.4,9.4,0,0,0,17,7.5,9.87,9.87,0,0,0,15.53,7a6.82,6.82,0,0,0-1.64-.2,7,7,0,0,0-2.53.43,5.59,5.59,0,0,0-1.9,1.22,5.32,5.32,0,0,0-1.2,1.88,6.53,6.53,0,0,0-.43,2.43,5.89,5.89,0,0,0,.34,2,5.78,5.78,0,0,0,.91,1.7,4.35,4.35,0,0,0,1.39,1.17,3.66,3.66,0,0,0,1.78.43,3.77,3.77,0,0,0,1.93-.49,8.19,8.19,0,0,0,1.51-1.08V17.7Zm-3.64-3.62a3.61,3.61,0,0,1-.53.58,2.88,2.88,0,0,1-.63.42,1.79,1.79,0,0,1-.71.16,2.11,2.11,0,0,1-1.73-.73,3.11,3.11,0,0,1-.59-2,2.8,2.8,0,0,1,.78-2.13,2.74,2.74,0,0,1,1.93-.74,2.12,2.12,0,0,1,1.17.3l.67.43v3.1A3.8,3.8,0,0,1,15.33,14.08Z"/><path class="cls-8" d="M25.1,9.2a3.41,3.41,0,0,1,1,.15,2.68,2.68,0,0,1,.75.33l1.2-2A4.52,4.52,0,0,0,26.59,7a7.43,7.43,0,0,0-1.92-.24,5.08,5.08,0,0,0-1.73.26,3.72,3.72,0,0,0-1.26.7,3.06,3.06,0,0,0-.75,1A2.91,2.91,0,0,0,20.68,10a3.1,3.1,0,0,0,.23,1.23,3,3,0,0,0,.6.91,4.05,4.05,0,0,0,.86.67,8.58,8.58,0,0,0,.95.49,9.16,9.16,0,0,1,1.24.62.71.71,0,0,1,.36.59c0,.6-.4.91-1.21.91a3.74,3.74,0,0,1-1.22-.23,4.64,4.64,0,0,1-1.19-.62L20.09,16.9a7.68,7.68,0,0,0,1.7.83,6.78,6.78,0,0,0,2.24.33,5,5,0,0,0,1.73-.28A4.07,4.07,0,0,0,27.08,17a3.14,3.14,0,0,0,.84-1.09,2.85,2.85,0,0,0,.3-1.27,3.61,3.61,0,0,0-.18-1.2,2.89,2.89,0,0,0-.51-.91,3.5,3.5,0,0,0-.81-.71,10.31,10.31,0,0,0-1-.58q-.66-.32-1.17-.6A.81.81,0,0,1,24,10a.72.72,0,0,1,.27-.5A1.21,1.21,0,0,1,25.1,9.2Z"/><polygon class="cls-8" points="40.52 7.17 45.39 17.81 47.1 17.81 51.98 7.17 48.38 7.17 46.35 12.87 46.24 13.55 46.15 12.87 44.1 7.17 40.52 7.17"/><path class="cls-8" d="M61.94,8.15a10,10,0,0,0-1.19-.65A10.28,10.28,0,0,0,59.27,7a7.31,7.31,0,0,0-4.17.23l-.05,0-.16,0A5.4,5.4,0,0,0,53,8.51a5.32,5.32,0,0,0-1.2,1.88,6.41,6.41,0,0,0-.4,2.19,2.12,2.12,0,0,0,0,.24,5.89,5.89,0,0,0,.26,1.73,1.43,1.43,0,0,0,.07.28,5.52,5.52,0,0,0,.7,1.37,3.53,3.53,0,0,0,.21.32,4.35,4.35,0,0,0,.94.88l.2.13c.08,0,.16.12.25.17a3.69,3.69,0,0,0,1.78.43l.18,0a5,5,0,0,0,.54-.07l.36-.08.26-.07h0a3.77,3.77,0,0,0,.78-.32,9.08,9.08,0,0,0,1.3-.91v1.11h3.28V17.7h.21l0-8.91A4.42,4.42,0,0,0,61.94,8.15Zm-2.73,4.11v1.25a3.15,3.15,0,0,1-.71,1c-.06.06-.11.13-.17.18a2.85,2.85,0,0,1-.6.4,1.63,1.63,0,0,1-.54.12,2.12,2.12,0,0,1-1.73-.73,3.17,3.17,0,0,1-.59-2,2.77,2.77,0,0,1,.79-2.13,2.53,2.53,0,0,1,.8-.51,3,3,0,0,1,.91-.16,2.12,2.12,0,0,1,1.17.3l.47.3.2.13Z"/><polygon class="cls-8" points="67.94 17.7 67.94 17.19 67.94 15.08 67.94 12.98 67.94 12.96 67.94 11.12 67.94 10.88 67.94 9.02 67.94 8.78 67.94 6.92 67.94 4.82 67.94 2.71 67.94 0 64.64 0 64.64 4.62 64.64 6.72 64.64 8.82 64.64 10.68 64.64 10.93 64.64 12.78 64.64 13.03 64.64 14.87 64.64 14.89 64.64 16.99 64.64 17.7 67.06 17.7 67.94 17.7"/><path class="cls-8" d="M84.35,14.51a4.84,4.84,0,0,1-1.55.66,6.43,6.43,0,0,1-1.46.19,5,5,0,0,1-2-.42,5.1,5.1,0,0,1-1.68-1.14,5.35,5.35,0,0,1-1.13-1.73,5.74,5.74,0,0,1,0-4.31,5.21,5.21,0,0,1,1.13-1.7,5.43,5.43,0,0,1,1.68-1.14,5,5,0,0,1,2-.41,6.72,6.72,0,0,1,1.49.18,5.34,5.34,0,0,1,1.57.65l1.48-2.41a6.54,6.54,0,0,0-2.16-1,9,9,0,0,0-2.49-.34,8.68,8.68,0,0,0-3.34.65A8.89,8.89,0,0,0,75.16,4a8.5,8.5,0,0,0-1.85,2.64,7.8,7.8,0,0,0-.69,3.27,7.87,7.87,0,0,0,.69,3.28,8.66,8.66,0,0,0,1.86,2.67,8.5,8.5,0,0,0,2.77,1.8,8.73,8.73,0,0,0,3.4.65A8.54,8.54,0,0,0,83.71,18a7.25,7.25,0,0,0,2.15-1Z"/><path class="cls-8" d="M99.05,12.75a5.2,5.2,0,0,0-.44-2.15,5.36,5.36,0,0,0-1.23-1.78,5.93,5.93,0,0,0-1.88-1.2,6.55,6.55,0,0,0-4.72,0,5.93,5.93,0,0,0-1.88,1.2,5.41,5.41,0,0,0,0,7.84,6.13,6.13,0,0,0,1.88,1.21,6.69,6.69,0,0,0,4.72,0,6.11,6.11,0,0,0,1.88-1.2,5.28,5.28,0,0,0,1.23-1.76A5.22,5.22,0,0,0,99.05,12.75Zm-3.39,1.14a3,3,0,0,1-.6.91,2.59,2.59,0,0,1-.86.59,2.49,2.49,0,0,1-1,.22,2.45,2.45,0,0,1-1-.22,2.89,2.89,0,0,1-.88-.59,3,3,0,0,1-.6-.91,2.93,2.93,0,0,1-.23-1.16,3,3,0,0,1,.23-1.16,2.63,2.63,0,0,1,1.47-1.48,2.68,2.68,0,0,1,1-.21,2.65,2.65,0,0,1,1,.21,2.72,2.72,0,0,1,.86.58,2.84,2.84,0,0,1,.6.9,3,3,0,0,1,.22,1.16A2.92,2.92,0,0,1,95.66,13.89Z"/><rect class="cls-8" x="101.01" y="0.48" width="3.26" height="17.46"/><path class="cls-8" d="M118,12.75a5.4,5.4,0,0,0-1.68-3.93,5.88,5.88,0,0,0-1.87-1.2,6.29,6.29,0,0,0-2.37-.44,6.22,6.22,0,0,0-2.35.44,5.82,5.82,0,0,0-1.88,1.2,5.54,5.54,0,0,0-1.24,1.78,5.47,5.47,0,0,0,0,4.3,5.57,5.57,0,0,0,1.24,1.76,6,6,0,0,0,1.88,1.21,6.22,6.22,0,0,0,2.35.43,6.29,6.29,0,0,0,2.37-.43,6.06,6.06,0,0,0,1.87-1.2,5.31,5.31,0,0,0,1.24-1.76A5.38,5.38,0,0,0,118,12.75Zm-3.4,1.14a3.17,3.17,0,0,1-.59.91,2.73,2.73,0,0,1-.87.59,2.45,2.45,0,0,1-1,.22,2.49,2.49,0,0,1-1-.22,2.73,2.73,0,0,1-.87-.59,2.85,2.85,0,0,1-.61-.91,2.92,2.92,0,0,1-.22-1.16,3,3,0,0,1,.22-1.16,2.84,2.84,0,0,1,.6-.9,2.76,2.76,0,0,1,.87-.58,2.73,2.73,0,0,1,1-.21,2.6,2.6,0,0,1,1,.21,2.88,2.88,0,0,1,.87.58,3,3,0,0,1,.82,2.06A2.93,2.93,0,0,1,114.6,13.89Z"/><path class="cls-8" d="M127.14,7.45a3.13,3.13,0,0,0-1.37-.27,2.27,2.27,0,0,0-.91.18,3.34,3.34,0,0,0-.74.43,3.48,3.48,0,0,0-.56.5,2.64,2.64,0,0,0-.35.44V7.58H120V17.94h3.26V11.47a1.77,1.77,0,0,1,.21-.41,2.65,2.65,0,0,1,.38-.46,2,2,0,0,1,.54-.37,1.61,1.61,0,0,1,.71-.15,2.21,2.21,0,0,1,1,.16,1.83,1.83,0,0,1,.4.24l1.37-2.63A2.57,2.57,0,0,0,127.14,7.45Z"/></g></g></svg>